# xmcd
#
# Track frame offsets: 
#        150
#        21654
#        40318
#        57788
#        76241
#        97363
#        114045
#        140649
#        159673
#        179309
#        197258
#        242710
#
# Disc length: 3596 seconds
#
# Revision: 0
# Processed by: cddbd v1.5.2PL0 Copyright (c) Steve Scherf et al.
# Submitted via: ExactAudioCopy v0.95a5
#
DISCID=9e0e0a0c
DTITLE=Cleveland Watkiss - Victory's Happy Songbook
DYEAR=2003
DGENRE=Soul
TTITLE0=Waiting For You
TTITLE1=So Near
TTITLE2=Spoken Word
TTITLE3=Fresh Waters
TTITLE4=Thinking Of You
TTITLE5=It's Only Sweat
TTITLE6=Torch Of Freedom
TTITLE7=Very Serious
TTITLE8=Joy
TTITLE9=Inside
TTITLE10=Open Eyes
TTITLE11=Torch Of Freedom (DJ Patife Remix)
EXTD=
EXTT0=
EXTT1=
EXTT2=
EXTT3=
EXTT4=
EXTT5=
EXTT6=
EXTT7=
EXTT8=
EXTT9=
EXTT10=
EXTT11=
PLAYORDER=
